<svg xmlns="http://www.w3.org/2000/svg" viewBox="0 0 1200 300">
  <defs>
    <linearGradient id="bg" x1="0%" y1="0%" x2="100%" y2="100%">
      <stop offset="0%" stop-color="#0a0a0f"/>
      <stop offset="100%" stop-color="#12121a"/>
    </linearGradient>
    <linearGradient id="accent" x1="0%" y1="0%" x2="100%" y2="100%">
      <stop offset="0%" stop-color="#6366f1"/>
      <stop offset="100%" stop-color="#818cf8"/>
    </linearGradient>
    <linearGradient id="accent2" x1="0%" y1="0%" x2="100%" y2="0%">
      <stop offset="0%" stop-color="#6366f1"/>
      <stop offset="100%" stop-color="#a855f7"/>
    </linearGradient>
    <filter id="glow">
      <feGaussianBlur stdDeviation="3" result="coloredBlur"/>
      <feMerge>
        <feMergeNode in="coloredBlur"/>
        <feMergeNode in="SourceGraphic"/>
      </feMerge>
    </filter>
  </defs>
  
  <!-- Background -->
  <rect width="1200" height="300" fill="url(#bg)"/>
  
  <!-- Grid pattern -->
  <g opacity="0.1">
    <pattern id="grid" width="40" height="40" patternUnits="userSpaceOnUse">
      <path d="M 40 0 L 0 0 0 40" fill="none" stroke="#6366f1" stroke-width="0.5"/>
    </pattern>
    <rect width="1200" height="300" fill="url(#grid)"/>
  </g>
  
  <!-- Decorative orbs -->
  <circle cx="100" cy="50" r="150" fill="#6366f1" opacity="0.1"/>
  <circle cx="1100" cy="250" r="200" fill="#818cf8" opacity="0.08"/>
  <circle cx="600" cy="150" r="300" fill="#6366f1" opacity="0.03"/>
  
  <!-- Logo -->
  <g transform="translate(100, 110)">
    <svg width="80" height="80" viewBox="0 0 32 32">
      <defs>
        <linearGradient id="logoGrad" x1="0%" y1="0%" x2="100%" y2="100%">
          <stop offset="0%" stop-color="#6366f1"/>
          <stop offset="100%" stop-color="#818cf8"/>
        </linearGradient>
      </defs>
      <polygon points="16,2 28,28 4,28" fill="url(#logoGrad)" filter="url(#glow)"/>
      <polygon points="16,8 23,24 9,24" fill="#0a0a0f"/>
    </svg>
  </g>
  
  <!-- Title -->
  <text x="210" y="160" fill="#f0f0f5" font-family="Inter, -apple-system, BlinkMacSystemFont, sans-serif" font-size="72" font-weight="700">
    Prism
  </text>
  
  <!-- Subtitle -->
  <text x="210" y="200" fill="#8888a0" font-family="Inter, -apple-system, BlinkMacSystemFont, sans-serif" font-size="24" font-weight="400">
    Project Intelligence Platform
  </text>
  
  <!-- Accent line -->
  <rect x="210" y="220" width="200" height="3" rx="1.5" fill="url(#accent)"/>
  
  <!-- Badges on the right -->
  <g transform="translate(850, 120)">
    <!-- Build badge -->
    <rect x="0" y="0" width="120" height="30" rx="6" fill="#22c55e" opacity="0.2"/>
    <circle cx="20" cy="15" r="6" fill="#22c55e"/>
    <text x="35" y="20" fill="#22c55e" font-family="Inter, sans-serif" font-size="13" font-weight="500">Build Passing</text>
  </g>
  
  <g transform="translate(850, 160)">
    <!-- Version badge -->
    <rect x="0" y="0" width="80" height="30" rx="6" fill="#6366f1" opacity="0.2"/>
    <text x="40" y="20" fill="#6366f1" font-family="Inter, sans-serif" font-size="13" font-weight="500" text-anchor="middle">v1.0.0</text>
  </g>
  
  <g transform="translate(850, 200)">
    <!-- License badge -->
    <rect x="0" y="0" width="70" height="30" rx="6" fill="#a855f7" opacity="0.2"/>
    <text x="35" y="20" fill="#a855f7" font-family="Inter, sans-serif" font-size="13" font-weight="500" text-anchor="middle">MIT</text>
  </g>
  
  <!-- Features icons -->
  <g transform="translate(600, 250)" opacity="0.6">
    <circle cx="0" cy="0" r="4" fill="#6366f1"/>
    <text x="15" y="4" fill="#8888a0" font-family="Inter, sans-serif" font-size="12">React</text>
    
    <circle cx="80" cy="0" r="4" fill="#22c55e"/>
    <text x="95" y="4" fill="#8888a0" font-family="Inter, sans-serif" font-size="12">Express</text>
    
    <circle cx="180" cy="0" r="4" fill="#f59e0b"/>
    <text x="195" y="4" fill="#8888a0" font-family="Inter, sans-serif" font-size="12">SQLite</text>
    
    <circle cx="270" cy="0" r="4" fill="#ec4899"/>
    <text x="285" y="4" fill="#8888a0" font-family="Inter, sans-serif" font-size="12">TypeScript Ready</text>
  </g>
</svg>
